<svg height="511pt" viewBox="0 -1 511.99908 511" width="511pt" xmlns="http://www.w3.org/2000/svg"><path d="m509.101562 255.445312c0 72.613282-30.402343 138.121094-79.183593 184.488282v.011718c-42.148438 40.085938-98.015625 65.859376-159.84375 69.582032-5.132813.308594-10.308594.464844-15.523438.464844-13.695312 0-27.128906-1.078126-40.230469-3.167969-4.40625-.695313-8.777343-1.507813-13.113281-2.429688-15.53125-3.304687-30.542969-8.042969-44.890625-14.046875-17.414062-7.292968-33.839844-16.457031-49.03125-27.265625-2.328125-1.640625-4.625-3.332031-6.886718-5.070312-.511719-.371094-1.019532-.765625-1.527344-1.160157-3.667969-2.839843-7.253906-5.777343-10.753906-8.800781-2.628907-2.277343-5.207032-4.59375-7.730469-6.972656-3.085938-2.886719-6.101563-5.859375-9.03125-8.902344-2.410157-2.496093-4.765625-5.039062-7.0625-7.636719-2.515625-2.808593-4.957031-5.683593-7.335938-8.605468-.539062-.664063-1.082031-1.339844-1.621093-2.003906-.011719-.019532-.03125-.03125-.042969-.050782-2.148438-2.703125-4.246094-5.464844-6.292969-8.261718-14.703125-20.082032-26.527344-42.410157-34.878906-66.347657-3.148438-9.050781-5.808594-18.328125-7.9375-27.804687-.96875-4.320313-1.832032-8.683594-2.566406-13.082032-2.378907-13.960937-3.617188-28.308593-3.617188-42.9375 0-140.585937 113.964844-254.550781 254.550781-254.550781 27.761719 0 54.484375 4.433594 79.492188 12.664063 38.027343 12.476562 72.09375 33.695312 99.855469 61.257812 17.371093 17.246094 32.269531 36.976563 44.117187 58.628906 19.820313 36.21875 31.085937 77.800782 31.085937 122zm0 0" fill="#6cb9d3"/><path d="m406.527344 56.058594 7.660156-7.660156 50.023438 50.023437-7.660157 7.660156zm0 0" fill="#2f373b"/><path d="m379.785156 82.800781 7.660156-7.660156 50.023438 50.023437-7.660156 7.660157zm0 0" fill="#2f373b"/><path d="m278.457031 428.484375c-10.492187 11.761719-23.042969 20.582031-36.8125 26.527344-16.113281 6.949219-26.128906 22.617187-26.660156 40.976562-.101563 3.636719-.320313 7.253907-.664063 10.835938-4.40625-.695313-8.777343-1.507813-13.113281-2.429688-15.53125-3.304687-30.542969-8.042969-44.890625-14.046875-38.996094-16.332031-73.0625-42.078125-99.359375-74.414062-18.421875-22.648438-33.03125-48.539063-42.835937-76.664063-3.148438-9.050781-5.808594-18.328125-7.9375-27.804687-.96875-4.320313-1.832032-8.683594-2.566406-13.082032 4.238281-.464843 8.507812-.757812 12.808593-.882812 18.804688-.539062 34.222657-11.292969 41.519531-27.71875 5.152344-11.59375 12.363282-22.308594 21.683594-31.617188 48.09375-48.09375 133.214844-40.375 186.816406 18.289063 47.328126 51.792969 52.53125 126.628906 12.011719 172.03125zm0 0" fill="#ff9c40"/><path d="m268.554688 419.644531c-8.945313 10.027344-19.761719 17.816407-32.164063 23.179688-20.71875 8.933593-33.996094 29.164062-34.671875 52.789062-.082031 2.960938-.25 5.890625-.511719 8.78125-15.53125-3.304687-30.542969-8.042969-44.890625-14.046875-38.996094-16.332031-73.0625-42.078125-99.359375-74.414062-18.421875-22.648438-33.03125-48.539063-42.835937-76.664063-3.148438-9.050781-5.808594-18.328125-7.9375-27.804687 3.5-.363282 7.054687-.589844 10.628906-.695313 23.394531-.675781 43.8125-14.316406 53.265625-35.597656 4.613281-10.378906 10.984375-19.664063 18.941406-27.625 17.789063-17.796875 42.515625-27.59375 69.613281-27.59375 35.894532 0 71.617188 16.570313 98.003907 45.453125 20.886719 22.847656 33.488281 51.390625 35.515625 80.386719 1.984375 28.355469-6.402344 54.589843-23.597656 73.851562zm0 0" fill="#ffd073"/><path d="m231.355469 347.523438-4.746094-4.746094c-1.964844-30.496094-26.339844-54.886719-56.851563-56.835938l-4.789062-4.789062 26.257812-24.082032 10.484376-9.617187 23.132812-21.222656 10.492188-9.609375 32.125-29.46875 10.492187-9.625 32.789063-30.070313 10.492187-9.621093 31.457031-28.859376 7.980469-7.316406 50.160156 50.175782-7.308593 7.972656-28.859376 31.457031-9.621093 10.492187-30.070313 32.785157-9.625 10.492187-29.46875 32.128906-9.609375 10.488282-21.222656 23.136718-9.617187 10.484376zm0 0" fill="#aa5821"/><path d="m222.707031 377.503906c0 48.332032-39.328125 87.65625-87.660156 87.65625-12.300781 0-24.019531-2.542968-34.648437-7.148437-.511719-.371094-1.019532-.765625-1.527344-1.160157-3.667969-2.839843-7.253906-5.777343-10.753906-8.800781-2.628907-2.277343-5.207032-4.59375-7.730469-6.972656-3.085938-2.886719-6.101563-5.859375-9.03125-8.902344-2.410157-2.496093-4.765625-5.039062-7.0625-7.636719-2.515625-2.808593-4.957031-5.683593-7.335938-8.605468-.539062-.664063-1.082031-1.339844-1.621093-2.003906-.011719-.019532-.03125-.03125-.042969-.050782-5.078125-11.085937-7.90625-23.410156-7.90625-36.375 0-48.335937 39.328125-87.660156 87.660156-87.660156s87.660156 39.324219 87.660156 87.660156zm0 0" fill="#ff9c40"/><g fill="#2f373b"><path d="m403.523438 159.808594-50.832032-50.832032 7.976563-7.320312 50.164062 50.179688zm0 0"/><path d="m365.042969 201.757812-54.300781-54.300781 10.492187-9.625 53.429687 53.433594zm0 0"/><path d="m325.347656 245.035156-57.886718-57.882812 10.492187-9.625 57.019531 57.019531zm0 0"/><path d="m286.269531 287.65625-61.425781-61.429688 10.492188-9.609374 60.542968 60.546874zm0 0"/><path d="m255.429688 321.273438-64.203126-64.203126 10.484376-9.617187 63.332031 63.335937zm0 0"/></g><path d="m205.804688 377.5c0 39.082031-31.679688 70.765625-70.761719 70.765625s-70.765625-31.683594-70.765625-70.765625c0-39.078125 31.683594-70.761719 70.765625-70.761719s70.761719 31.683594 70.761719 70.761719zm0 0" fill="#151a1c"/><path d="m373.710938 109.632812-318.375 304.296876c-2.160157-2.722657-4.28125-5.496094-6.335938-8.3125l317.542969-303.496094zm0 0" fill="#f2efea"/><path d="m410.375 145.964844-303.089844 317.117187c-2.847656-2.015625-5.652344-4.09375-8.414062-6.230469l304.003906-318.066406zm0 0" fill="#f2efea"/><path d="m385.472656 121.257812-314.117187 310.917969c-2.410157-2.496093-4.765625-5.039062-7.0625-7.636719l313.863281-310.667968zm0 0" fill="#f2efea"/><path d="m398.625 134.339844-310.507812 313.710937c-2.628907-2.277343-5.207032-4.59375-7.730469-6.972656l310.851562-314.050781zm0 0" fill="#f2efea"/><path d="m475.488281 75.992188c-11.644531-14.347657-24.632812-27.335938-38.980469-38.984376-7.628906-6.191406-18.578124-5.972656-26.121093.332032-16.476563 13.757812-31.59375 28.882812-45.351563 45.351562-6.304687 7.542969-6.523437 18.496094-.332031 26.132813 11.648437 14.335937 24.632813 27.335937 38.980469 38.96875 7.542968 6.121093 18.421875 6.101562 25.882812-.132813 16.644532-13.882812 31.90625-29.144531 45.789063-45.777344 6.222656-7.472656 6.253906-18.347656.132812-25.890624zm-80.988281 23.9375c-2.492188 2.492187-6.554688 2.492187-9.058594 0-2.496094-2.496094-2.496094-6.558594 0-9.0625l35.625-35.613282c2.496094-2.496094 6.558594-2.496094 9.050782 0 2.503906 2.492188 2.503906 6.554688 0 9.046875zm62.746094-8.5-35.617188 35.628906c-2.503906 2.492187-6.566406 2.492187-9.058594 0-2.496093-2.496094-2.496093-6.558594 0-9.0625l35.625-35.617188c2.492188-2.503906 6.554688-2.503906 9.050782 0 2.503906 2.496094 2.503906 6.558594 0 9.050782zm0 0" fill="#ffd073"/><path d="m434.53125 50.847656c-4.933594-4.933594-12.933594-4.933594-17.867188 0l-35.628906 35.617188c-4.933594 4.933594-4.933594 12.933594 0 17.871094 4.933594 4.933593 12.9375 4.933593 17.871094 0l35.625-35.617188c2.464844-2.464844 3.699219-5.703125 3.699219-8.9375 0-3.230469-1.234375-6.472656-3.699219-8.933594zm-4.414062 13.453125-35.617188 35.628907c-2.492188 2.492187-6.554688 2.492187-9.058594 0-2.496094-2.496094-2.496094-6.558594 0-9.0625l35.625-35.613282c2.496094-2.496094 6.558594-2.496094 9.050782 0 2.503906 2.492188 2.503906 6.554688 0 9.046875zm0 0" fill="#ff9c40"/><path d="m461.648438 77.964844c-4.933594-4.933594-12.933594-4.933594-17.867188 0l-35.617188 35.625c-4.9375 4.9375-4.9375 12.9375 0 17.871094 4.933594 4.9375 12.933594 4.9375 17.871094 0l35.613282-35.613282c2.464843-2.476562 3.699218-5.707031 3.699218-8.9375 0-3.242187-1.234375-6.484375-3.699218-8.945312zm-4.402344 13.464844-35.617188 35.628906c-2.503906 2.492187-6.566406 2.492187-9.058594 0-2.496093-2.496094-2.496093-6.558594 0-9.0625l35.625-35.617188c2.492188-2.503906 6.554688-2.503906 9.050782 0 2.503906 2.496094 2.503906 6.558594 0 9.050782zm0 0" fill="#ff9c40"/><path d="m407.019531 28.859375-5.425781-20.253906c-2.175781-8.125-12.332031-10.847657-18.28125-4.898438l-14.828125 14.828125c-5.945313 5.949219-3.226563 16.101563 4.898437 18.28125l20.253907 5.425782c8.125 2.175781 15.558593-5.257813 13.382812-13.382813zm0 0" fill="#d8d4ce"/><path d="m396.515625 34.3125c-.234375 0-.476563-.03125-.726563-.101562l-20.253906-5.425782c-1.269531-.339844-1.703125-1.304687-1.847656-1.847656-.148438-.546875-.253906-1.597656.675781-2.527344l14.824219-14.828125c.515625-.511719 1.121094-.769531 1.808594-.769531.207031 0 2.0625.054688 2.566406 1.945312l5.425781 20.253907c.222657.828125.078125 1.585937-.429687 2.246093-.507813.660157-1.269532 1.054688-2.042969 1.054688zm0 0" fill="#f2efea"/><path d="m372.074219 63.804688-5.425781-20.253907c-2.175782-8.125-12.332032-10.847656-18.28125-4.898437l-14.828126 14.828125c-5.949218 5.945312-3.226562 16.101562 4.898438 18.28125l20.253906 5.425781c8.125 2.175781 15.5625-5.257812 13.382813-13.382812zm0 0" fill="#d8d4ce"/><path d="m361.570312 69.257812c-.234374 0-.476562-.035156-.726562-.101562l-20.253906-5.425781c-1.269532-.339844-1.703125-1.304688-1.847656-1.847657-.148438-.546874-.253907-1.597656.675781-2.527343l14.828125-14.828125c.511718-.511719 1.117187-.769532 1.804687-.769532.210938 0 2.0625.054688 2.570313 1.945313l5.425781 20.253906c.222656.828125.078125 1.582031-.433594 2.246094-.507812.660156-1.269531 1.054687-2.042969 1.054687zm0 0" fill="#f2efea"/><path d="m483.640625 105.480469 20.253906 5.425781c8.125 2.175781 10.84375 12.332031 4.898438 18.28125l-14.828125 14.828125c-5.949219 5.949219-16.105469 3.226563-18.28125-4.898437l-5.425782-20.253907c-2.175781-8.125 5.257813-15.5625 13.382813-13.382812zm0 0" fill="#d8d4ce"/><path d="m486.28125 138.910156c-.207031 0-2.058594-.054687-2.566406-1.945312l-5.429688-20.257813c-.21875-.828125-.074218-1.582031.433594-2.246093.507812-.660157 1.269531-1.054688 2.042969-1.054688.234375 0 .476562.035156.726562.101562l20.253907 5.425782c1.269531.339844 1.703124 1.304687 1.851562 1.847656.144531.546875.25 1.597656-.675781 2.527344l-14.828125 14.824218c-.515625.515626-1.121094.777344-1.808594.777344zm0 0" fill="#f2efea"/><path d="m448.695312 140.421875 20.253907 5.429687c8.125 2.175782 10.84375 12.332032 4.898437 18.277344l-14.828125 14.828125c-5.949219 5.949219-16.101562 3.226563-18.28125-4.898437l-5.425781-20.253906c-2.175781-8.125 5.257812-15.558594 13.382812-13.382813zm0 0" fill="#d8d4ce"/><path d="m451.339844 173.851562c-.210938 0-2.0625-.050781-2.570313-1.941406l-5.429687-20.253906c-.21875-.828125-.074219-1.585938.433594-2.25.507812-.660156 1.273437-1.054688 2.042968-1.054688.234375 0 .476563.035157.726563.101563l20.253906 5.425781c1.269531.339844 1.703125 1.304688 1.851563 1.847656.144531.546876.25 1.597657-.675782 2.527344l-14.828125 14.828125c-.515625.511719-1.121093.769531-1.804687.769531zm0 0" fill="#f2efea"/><path d="m326.65625 380.296875 22.617188-7.769531c6.792968-2.335938 6.792968-11.941406 0-14.277344l-22.617188-7.773438c-2.199219-.753906-3.929688-2.484374-4.683594-4.683593l-7.773437-22.617188c-2.335938-6.792969-11.941407-6.792969-14.277344 0l-7.769531 22.617188c-.757813 2.199219-2.484375 3.929687-4.6875 4.683593l-22.617188 7.773438c-6.792968 2.335938-6.792968 11.941406 0 14.277344l22.617188 7.769531c2.203125.757813 3.929687 2.484375 4.6875 4.6875l7.769531 22.617187c2.335937 6.792969 11.941406 6.792969 14.277344 0l7.773437-22.617187c.753906-2.203125 2.484375-3.929687 4.683594-4.6875zm0 0" fill="#f2efea"/><path d="m303.851562 76.136719v15.878906c0 3.464844-2.414062 6.457031-5.796874 7.195313l-44.535157 9.675781v69.515625c0 13.066406-15.644531 23.660156-34.9375 23.660156s-34.9375-10.59375-34.9375-23.660156c0-13.074219 15.644531-23.667969 34.9375-23.667969 7.082031 0 13.660157 1.429687 19.164063 3.875v-71.304687c0-3.464844 2.414062-6.460938 5.796875-7.195313l51.382812-11.167969c4.589844-.996094 8.925781 2.5 8.925781 7.195313zm0 0" fill="#2880a8"/><path d="m73.660156 52.574219v73.835937c-5.941406-2.644531-13.042968-4.1875-20.679687-4.1875-20.828125 0-37.710938 11.4375-37.710938 25.546875 0 14.105469 16.882813 25.542969 37.710938 25.542969 20.824219 0 37.707031-11.4375 37.707031-25.542969v-75.03125l73.839844-16.046875v49.972656c-5.9375-2.640624-13.039063-4.183593-20.679688-4.183593-20.824218 0-37.707031 11.433593-37.707031 25.542969 0 14.109374 16.882813 25.546874 37.707031 25.546874 20.828125 0 37.710938-11.4375 37.710938-25.546874v-93.75c0-7.550782-6.976563-13.171876-14.351563-11.570313l-84.222656 18.300781c-5.441406 1.183594-9.324219 6-9.324219 11.570313zm0 0" fill="#2880a8"/></svg>